#!OML:ASF F:\VICON\USERDATA\INSTALL\Justin_Nancy\Justin_Nancy.ASF
:FULLY-SPECIFIED
:DEGREES
47
root 0.917353 17.8226 -15.4075 6.70729 -4.36744 1.01154
lowerback 4.0161 -0.66965 -2.91653
upperback -0.705171 -0.96484 2.69561
thorax -2.88703 -0.409969 4.49079
lowerneck -16.9996 -3.77582 -9.90642
upperneck 21.5815 -3.89411 5.53099
head 9.98771 -1.99002 3.06664
rclavicle -2.18663e-015 -1.59028e-015
rhumerus -34.0134 -11.7341 -77.9584
rradius 34.2131
rwrist 3.50894
rhand -9.20802 13.8037
rfingers 7.12502
rthumb 16.7462 -15.494
lclavicle -2.18663e-015 -1.59028e-015
lhumerus -31.3865 11.1179 84.4603
lradius 30.2259
lwrist -7.98066
lhand -10.9114 24.7262
lfingers 7.12502
lthumb 15.1059 54.155
rfemur -12.3237 6.02799 18.8865
rtibia 22.3998
rfoot -11.3815 -9.80417
rtoes 3.19386
lfemur -9.99487 -3.13218 -20.2343
ltibia 18.8236
lfoot -12.0331 7.25967
ltoes -1.02508
48
root 0.918368 17.8245 -15.4107 6.73404 -4.30642 0.973142
lowerback 4.04116 -0.6616 -2.85293
upperback -0.724265 -0.95067 2.71323
thorax -2.92296 -0.402702 4.47301
lowerneck -17.0025 -3.74924 -9.92915
upperneck 21.6511 -3.84331 5.49569
head 10.0087 -1.97337 3.06595
rclavicle -9.64106e-015 -1.74931e-014
rhumerus -33.9782 -11.7697 -77.9252
rradius 34.1794
rwrist 3.63636
rhand -9.03079 13.9023
rfingers 7.12502
rthumb 16.9168 -15.381
lclavicle -9.64106e-015 -1.74931e-014
lhumerus -31.4413 11.1022 84.4826
lradius 30.3355
lwrist -7.9532
lhand -10.9025 24.9962
lfingers 7.12502
lthumb 15.1144 54.4243
rfemur -12.3452 5.99122 18.9203
rtibia 22.3909
rfoot -11.4176 -9.79309
rtoes 4.80638
lfemur -10.0669 -3.24719 -20.1788
ltibia 18.9086
lfoot -12.0457 7.28369
ltoes -0.829125
49
root 0.919279 17.8241 -15.416 6.7552 -4.36688 0.94862
lowerback 4.07255 -0.605507 -2.79182
upperback -0.738172 -0.873638 2.6918
thorax -2.96371 -0.364328 4.41193
lowerneck -17.0147 -3.70982 -9.92885
upperneck 21.7782 -3.79186 5.50061
head 10.0519 -1.95063 3.07678
rclavicle 9.74045e-015 2.22639e-014
rhumerus -33.9628 -11.8662 -77.929
rradius 34.1251
rwrist 3.63638
rhand -8.94753 14.2232
rfingers 7.12502
rthumb 16.9969 -15.0531
lclavicle 9.74045e-015 2.22639e-014
lhumerus -31.4478 11.0274 84.4948
lradius 30.3851
lwrist -7.96521
lhand -10.9155 25.2063
lfingers 7.12502
lthumb 15.1019 54.6354
rfemur -12.4018 6.04418 18.9019
rtibia 22.4057
rfoot -11.4622 -9.67756
rtoes 5.02226
lfemur -10.0887 -3.43372 -20.1519
ltibia 18.934
lfoot -12.0335 7.45626
ltoes -0.222206
50
root 0.918646 17.8249 -15.4215 6.77828 -4.41024 0.904816
lowerback 4.0602 -0.543603 -2.71189
upperback -0.728484 -0.78747 2.66335
thorax -2.95636 -0.323228 4.33104
lowerneck -16.9774 -3.69449 -9.92155
upperneck 21.8286 -3.79091 5.55278
head 10.0634 -1.94478 3.0955
rclavicle -2.42517e-014 -1.59028e-015
rhumerus -34.0172 -11.9117 -77.9723
rradius 34.1703
rwrist 3.53339
rhand -9.04324 14.5637
rfingers 7.12502
rthumb 16.9048 -14.7206
lclavicle -2.42517e-014 -1.59028e-015
lhumerus -31.5043 10.9103 84.4822
lradius 30.5045
lwrist -8.11148
lhand -10.9176 25.2826
lfingers 7.12502
lthumb 15.0999 54.7118
rfemur -12.4594 6.13936 18.9131
rtibia 22.4253
rfoot -11.5438 -9.60294
rtoes 5.06508
lfemur -10.1346 -3.41089 -20.1095
ltibia 18.9358
lfoot -11.9553 7.45385
ltoes 0.0168897
51
root 0.916565 17.826 -15.4258 6.79598 -4.32771 0.921608
lowerback 4.04182 -0.526127 -2.69857
upperback -0.739444 -0.763893 2.63357
thorax -2.96008 -0.31167 4.29073
lowerneck -16.8559 -3.69874 -9.9465
upperneck 21.7845 -3.81797 5.61925
head 10.0289 -1.95282 3.11986
rclavicle -1.98785e-015 -2.3059e-014
rhumerus -34.1036 -11.812 -78.0308
rradius 34.2332
rwrist 3.44971
rhand -9.30899 14.585
rfingers 7.12502
rthumb 16.649 -14.7209
lclavicle -1.98785e-015 -2.3059e-014
lhumerus -31.6327 10.7583 84.478
lradius 30.6068
lwrist -8.06099
lhand -10.9531 26.1432
lfingers 7.12502
lthumb 15.0656 55.575
rfemur -12.4803 6.14932 18.9057
rtibia 22.4444
rfoot -11.5847 -9.67347
rtoes 5.45776
lfemur -10.197 -3.38145 -20.1102
ltibia 18.9496
lfoot -11.8656 7.33553
ltoes 0.0660938
52
root 0.915102 17.8274 -15.4296 6.77268 -4.28822 0.944369
lowerback 4.05494 -0.500557 -2.71522
upperback -0.741717 -0.731171 2.61993
thorax -2.97288 -0.294844 4.28414
lowerneck -16.6322 -3.7328 -9.91973
upperneck 21.6261 -3.87699 5.55993
head 9.93389 -1.98562 3.08504
rclavicle -1.40143e-014 -5.64548e-014
rhumerus -34.0673 -11.7266 -78.0773
rradius 34.1712
rwrist 3.44836
rhand -9.47412 14.4328
rfingers 7.12502
rthumb 16.49 -14.8864
lclavicle -1.40143e-014 -5.64548e-014
lhumerus -31.6606 10.6941 84.4747
lradius 30.585
lwrist -7.98258
lhand -11.0154 27.9304
lfingers 7.12502
lthumb 15.0056 57.3667
rfemur -12.4638 6.20698 18.8902
rtibia 22.4561
rfoot -11.6105 -9.72131
rtoes 5.9144
lfemur -10.2231 -3.22624 -20.1292
ltibia 18.9598
lfoot -11.9032 7.19506
ltoes -0.101904
53
root 0.913815 17.8284 -15.4338 6.73053 -4.26132 0.890673
lowerback 4.17464 -0.470283 -2.67342
upperback -0.745285 -0.689788 2.64306
thorax -3.04809 -0.273087 4.28396
lowerneck -16.603 -3.76774 -9.90426
upperneck 21.6433 -3.91476 5.48351
head 9.93632 -2.01105 3.0503
rclavicle 5.96354e-016 -7.95139e-016
rhumerus -34.0657 -11.6227 -78.106
rradius 34.2016
rwrist 3.40007
rhand -9.5636 14.2895
rfingers 7.12502
rthumb 16.4039 -15.0368
lclavicle 5.96354e-016 -7.95139e-016
lhumerus -31.6838 10.5894 84.5225
lradius 30.6698
lwrist -7.79766
lhand -10.524 26.412
lfingers 7.12502
lthumb 15.479 55.8124
rfemur -12.4333 6.23611 18.9687
rtibia 22.4678
rfoot -11.6434 -9.78867
rtoes 5.75262
lfemur -10.2012 -3.14068 -20.0676
ltibia 18.9406
lfoot -11.9525 7.13924
ltoes -0.690299
54
root 0.914057 17.8291 -15.4379 6.70422 -4.21366 0.928544
lowerback 4.27304 -0.46895 -2.70197
upperback -0.757544 -0.691119 2.63997
thorax -3.11585 -0.271645 4.29885
lowerneck -16.5879 -3.75875 -9.92808
upperneck 21.7004 -3.89707 5.47606
head 9.95281 -2.00669 3.05501
rclavicle -3.00165e-014 1.59028e-015
rhumerus -34.0928 -11.5867 -78.1198
rradius 34.2612
rwrist 3.54166
rhand -9.73688 13.8447
rfingers 7.12502
rthumb 16.237 -15.4954
lclavicle -3.00165e-014 1.59028e-015
lhumerus -31.7544 10.5405 84.5619
lradius 30.7851
lwrist -7.53913
lhand -10.6262 25.9571
lfingers 7.12502
lthumb 15.3805 55.365
rfemur -12.4192 6.20503 18.9383
rtibia 22.4788
rfoot -11.5978 -9.82866
rtoes 5.58713
lfemur -10.1713 -3.19197 -20.1006
ltibia 18.9035
lfoot -12.0239 7.1589
ltoes -1.22545
55
root 0.914555 17.8287 -15.4384 6.717 -4.18473 0.992255
lowerback 4.2178 -0.455606 -2.73356
upperback -0.747403 -0.67514 2.60623
thorax -3.07577 -0.264394 4.27945
lowerneck -16.4669 -3.76602 -9.87247
upperneck 21.6429 -3.91926 5.41866
head 9.90913 -2.01974 3.02227
rclavicle -2.19657e-014 -7.15625e-015
rhumerus -34.0884 -11.6689 -78.1079
rradius 34.2517
rwrist 3.79651
rhand -9.78783 13.4235
rfingers 7.12502
rthumb 16.188 -15.9206
lclavicle -2.19657e-014 -7.15625e-015
lhumerus -31.7722 10.2943 84.6828
lradius 30.7156
lwrist -6.56644
lhand -13.9443 22.202
lfingers 7.12502
lthumb 12.1828 51.8272
rfemur -12.4283 6.14109 18.8647
rtibia 22.4793
rfoot -11.5721 -9.77557
rtoes 5.75809
lfemur -10.1731 -3.25641 -20.1678
ltibia 18.8735
lfoot -12.033 7.17608
ltoes -1.22666
56
root 0.915399 17.8292 -15.4362 6.72689 -4.10016 0.989199
lowerback 4.12917 -0.465929 -2.69225
upperback -0.708016 -0.685695 2.59988
thorax -2.98455 -0.272984 4.24807
lowerneck -16.5831 -3.78022 -9.78993
upperneck 21.7354 -3.92191 5.29694
head 9.96004 -2.02746 2.96504
rclavicle -9.44227e-015 2.38542e-015
rhumerus -34.0566 -11.6629 -78.1417
rradius 34.3221
rwrist 3.95155
rhand -9.79845 13.2056
rfingers 7.12502
rthumb 16.1777 -16.1393
lclavicle -9.44227e-015 2.38542e-015
lhumerus -31.6993 10.6009 84.4853
lradius 30.6927
lwrist -7.76367
lhand -18.4831 14.6648
lfingers 7.12502
lthumb 7.80411 44.5007
rfemur -12.4133 6.0765 18.8719
rtibia 22.4709
rfoot -11.5826 -9.76684
rtoes 5.79992
lfemur -10.1494 -3.36488 -20.1538
ltibia 18.8379
lfoot -12.0083 7.16855
ltoes -0.764141
57
root 0.914895 17.8283 -15.4362 6.74542 -3.96539 0.923529
lowerback 4.09341 -0.502524 -2.6107
upperback -0.718161 -0.7288 2.63071
thorax -2.97141 -0.295772 4.23623
lowerneck -16.5791 -3.79643 -9.88334
upperneck 21.8039 -3.93036 5.33294
head 9.98762 -2.03604 2.99321
rclavicle -6.95746e-015 -1.11319e-014
rhumerus -34.0831 -11.4614 -78.2238
rradius 34.4336
rwrist 3.89655
rhand -9.83966 13.4246
rfingers 7.12502
rthumb 16.138 -15.9235
lclavicle -6.95746e-015 -1.11319e-014
lhumerus -31.6885 10.7187 84.4072
lradius 30.6378
lwrist -8.13701
lhand -10.4662 24.8346
lfingers 7.12502
lthumb 15.5346 54.2306
rfemur -12.4113 6.05192 18.9552
rtibia 22.4552
rfoot -11.6208 -9.86336
rtoes 5.57918
lfemur -10.1842 -3.38493 -20.0584
ltibia 18.8295
lfoot -11.955 7.03274
ltoes -0.531552
58
root 0.913454 17.8276 -15.4368 6.75786 -3.88996 0.89046
lowerback 4.05703 -0.511535 -2.57062
upperback -0.704315 -0.738062 2.63953
thorax -2.93607 -0.301948 4.22246
lowerneck -16.5434 -3.79176 -9.97502
upperneck 21.7974 -3.92887 5.44032
head 9.98261 -2.03116 3.0473
rclavicle -1.15295e-014 -7.15625e-015
rhumerus -34.1323 -11.4237 -78.2427
rradius 34.5491
rwrist 3.86568
rhand -9.59541 13.8921
rfingers 7.12502
rthumb 16.3732 -15.4368
lclavicle -1.15295e-014 -7.15625e-015
lhumerus -31.6643 10.7984 84.3568
lradius 30.6289
lwrist -8.35033
lhand -13.9104 20.6444
lfingers 7.12502
lthumb 12.2155 50.2677
rfemur -12.3946 6.04866 19.0083
rtibia 22.3961
rfoot -11.571 -10.0065
rtoes 4.85637
lfemur -10.2573 -3.3896 -20.0086
ltibia 18.8769
lfoot -11.9133 6.99954
ltoes -0.929025
